<?xml version="1.0" standalone="no"?>
<!DOCTYPE svg PUBLIC "-//W3C//DTD SVG 20010904//EN"
 "http://www.w3.org/TR/2001/REC-SVG-20010904/DTD/svg10.dtd">
<svg version="1.0" xmlns="http://www.w3.org/2000/svg"
 width="639.000000pt" height="294.000000pt" viewBox="0 0 639.000000 294.000000"
 preserveAspectRatio="xMidYMid meet">

<g transform="translate(0.000000,294.000000) scale(0.100000,-0.100000)"
fill="white" stroke="none">
<path d="M3050 2816 l0 -124 -52 -17 c-80 -25 -130 -58 -187 -122 -29 -32
-273 -363 -542 -735 -270 -373 -494 -678 -497 -678 -4 1 -221 298 -482 662
-261 363 -494 687 -516 718 -49 67 -143 133 -222 156 -39 12 -82 15 -152 12
-85 -3 -105 -8 -164 -37 -85 -42 -155 -112 -198 -198 -32 -65 -33 -72 -33
-188 0 -117 1 -122 35 -192 22 -44 277 -402 665 -935 695 -952 730 -995 871
-1064 69 -35 88 -39 165 -42 64 -3 102 1 139 13 70 23 188 104 248 170 27 29
287 372 577 760 290 388 529 704 530 703 1 -2 -6 -43 -16 -93 -24 -115 -26
-354 -4 -481 42 -241 153 -451 334 -634 250 -253 554 -401 932 -455 139 -20
489 -20 629 0 363 52 671 199 909 434 252 249 371 532 371 885 0 355 -105 615
-344 851 -213 212 -493 352 -831 417 -138 26 -536 37 -697 19 -353 -41 -673
-170 -903 -367 -29 -24 -55 -44 -58 -44 -3 0 -7 37 -9 83 -6 111 -35 181 -105
258 -62 66 -112 99 -190 124 l-53 17 0 124 0 124 -75 0 -75 0 0 -124z m110
-16 l0 -100 -35 0 -35 0 0 100 0 100 35 0 35 0 0 -100z m-2656 -185 c62 -10
127 -48 181 -106 28 -30 277 -370 555 -756 278 -387 513 -705 524 -709 11 -4
25 1 36 12 10 11 241 327 514 704 272 377 517 710 545 740 27 31 73 69 103 85
50 28 60 30 163 30 103 0 113 -2 163 -30 73 -40 145 -121 172 -193 18 -47 21
-73 18 -147 -6 -138 59 -43 -787 -1172 l-593 -793 -84 0 -84 0 0 260 0 260
-150 0 -150 0 0 -260 0 -260 -104 0 -103 0 -110 148 c-361 486 -1167 1599
-1197 1653 -84 153 -60 324 61 440 58 56 114 86 185 98 53 9 66 8 142 -4z
m4571 -66 c522 -54 963 -332 1147 -726 64 -136 89 -252 95 -433 7 -188 -10
-312 -61 -454 -147 -412 -549 -733 -1040 -830 -67 -14 -154 -28 -193 -31 l-73
-7 0 256 0 256 -150 0 -150 0 0 -256 0 -256 -77 7 c-199 17 -419 78 -585 161
-111 55 -155 83 -253 159 -314 245 -466 551 -466 939 0 206 33 360 106 506 50
100 152 235 239 318 338 320 841 454 1461 391z m-3185 -2029 l0 -240 -110 0
-110 0 0 240 0 240 110 0 110 0 0 -240z m3020 -215 l0 -235 -110 0 -110 0 0
235 0 235 110 0 110 0 0 -235z m-2883 -90 l-28 -25 -243 0 -243 0 -23 25 -23
25 294 0 294 -1 -28 -24z m-102 -73 c-25 -23 -101 -42 -163 -42 -66 0 -156 22
-168 41 -3 5 67 9 167 9 96 0 169 -4 164 -8z"/>
<path d="M290 2240 l0 -160 160 0 160 0 0 160 0 160 -160 0 -160 0 0 -160z
m140 70 l0 -50 -50 0 -50 0 0 50 0 50 50 0 50 0 0 -50z m140 0 l0 -50 -50 0
-50 0 0 50 0 50 50 0 50 0 0 -50z m-140 -140 l0 -50 -50 0 -50 0 0 50 0 50 50
0 50 0 0 -50z m140 0 l0 -50 -50 0 -50 0 0 50 0 50 50 0 50 0 0 -50z"/>
<path d="M2740 1920 l0 -160 160 0 160 0 0 160 0 160 -160 0 -160 0 0 -160z
m140 70 l0 -50 -50 0 -50 0 0 50 0 50 50 0 50 0 0 -50z m140 0 l0 -50 -50 0
-50 0 0 50 0 50 50 0 50 0 0 -50z m-140 -140 l0 -50 -50 0 -50 0 0 50 0 50 50
0 50 0 0 -50z m140 0 l0 -50 -50 0 -50 0 0 50 0 50 50 0 50 0 0 -50z"/>
<path d="M820 1520 l0 -160 160 0 160 0 0 160 0 160 -160 0 -160 0 0 -160z
m140 70 l0 -50 -50 0 -50 0 0 50 0 50 50 0 50 0 0 -50z m140 0 l0 -50 -50 0
-50 0 0 50 0 50 50 0 50 0 0 -50z m-140 -140 l0 -50 -50 0 -50 0 0 50 0 50 50
0 50 0 0 -50z m140 0 l0 -50 -50 0 -50 0 0 50 0 50 50 0 50 0 0 -50z"/>
<path d="M3660 1920 l0 -160 160 0 160 0 0 160 0 160 -160 0 -160 0 0 -160z
m140 70 l0 -50 -50 0 -50 0 0 50 0 50 50 0 50 0 0 -50z m140 0 l0 -50 -50 0
-50 0 0 50 0 50 50 0 50 0 0 -50z m-140 -140 l0 -50 -50 0 -50 0 0 50 0 50 50
0 50 0 0 -50z m140 0 l0 -50 -50 0 -50 0 0 50 0 50 50 0 50 0 0 -50z"/>
<path d="M4565 1953 c-159 -34 -303 -112 -406 -220 -108 -114 -158 -232 -166
-393 -9 -194 39 -323 173 -456 69 -70 95 -89 185 -132 148 -71 203 -84 404
-89 189 -6 293 8 414 53 207 78 367 246 416 439 20 77 19 230 -1 309 -62 243
-279 431 -567 490 -99 21 -354 20 -452 -1z m437 -67 c262 -51 473 -235 518
-453 17 -82 8 -245 -17 -315 -39 -106 -131 -211 -245 -280 -129 -79 -255 -109
-463 -109 -276 0 -456 67 -600 223 -93 100 -135 210 -135 355 0 153 45 266
150 377 100 105 223 172 369 201 90 18 331 19 423 1z"/>
<path d="M5790 1340 l0 -160 160 0 160 0 0 160 0 160 -160 0 -160 0 0 -160z
m140 70 l0 -50 -50 0 -50 0 0 50 0 50 50 0 50 0 0 -50z m140 0 l0 -50 -50 0
-50 0 0 50 0 50 50 0 50 0 0 -50z m-140 -140 l0 -50 -50 0 -50 0 0 50 0 50 50
0 50 0 0 -50z m140 0 l0 -50 -50 0 -50 0 0 50 0 50 50 0 50 0 0 -50z"/>
<path d="M3660 740 l0 -160 160 0 160 0 0 160 0 160 -160 0 -160 0 0 -160z
m140 70 l0 -50 -50 0 -50 0 0 50 0 50 50 0 50 0 0 -50z m140 0 l0 -50 -50 0
-50 0 0 50 0 50 50 0 50 0 0 -50z m-140 -140 l0 -50 -50 0 -50 0 0 50 0 50 50
0 50 0 0 -50z m140 0 l0 -50 -50 0 -50 0 0 50 0 50 50 0 50 0 0 -50z"/>
<path d="M1820 510 c0 -13 7 -20 20 -20 13 0 20 7 20 20 0 13 -7 20 -20 20
-13 0 -20 -7 -20 -20z"/>
<path d="M4840 290 c0 -13 7 -20 20 -20 13 0 20 7 20 20 0 13 -7 20 -20 20
-13 0 -20 -7 -20 -20z"/>
</g>
</svg>
