<?xml version="1.0" standalone="no"?>
<!DOCTYPE svg PUBLIC "-//W3C//DTD SVG 20010904//EN"
 "http://www.w3.org/TR/2001/REC-SVG-20010904/DTD/svg10.dtd">
<svg version="1.0" xmlns="http://www.w3.org/2000/svg"
 width="639.000000pt" height="294.000000pt" viewBox="0 0 639.000000 294.000000"
 preserveAspectRatio="xMidYMid meet">

<g transform="translate(0.000000,294.000000) scale(0.100000,-0.100000)"
fill="#FFFFFF" stroke="none">
<path d="M3050 2816 l0 -124 -52 -17 c-80 -25 -130 -58 -187 -122 -29 -32
-273 -363 -542 -735 -270 -373 -494 -678 -497 -678 -4 1 -221 298 -482 662
-261 363 -494 687 -516 718 -49 67 -143 133 -222 156 -39 12 -82 15 -152 12
-85 -3 -105 -8 -164 -37 -85 -42 -155 -112 -198 -198 -32 -65 -33 -72 -33
-188 0 -117 1 -122 35 -192 22 -44 277 -402 665 -935 695 -952 730 -995 871
-1064 69 -35 88 -39 165 -42 64 -3 102 1 139 13 70 23 188 104 248 170 27 29
287 372 577 760 290 388 529 704 530 703 1 -2 -6 -43 -16 -93 -24 -115 -26
-354 -4 -481 42 -241 153 -451 334 -634 250 -253 554 -401 932 -455 139 -20
489 -20 629 0 363 52 671 199 909 434 252 249 371 532 371 885 0 355 -105 615
-344 851 -213 212 -493 352 -831 417 -138 26 -536 37 -697 19 -353 -41 -673
-170 -903 -367 -29 -24 -55 -44 -58 -44 -3 0 -7 37 -9 83 -6 111 -35 181 -105
258 -62 66 -112 99 -190 124 l-53 17 0 124 0 124 -75 0 -75 0 0 -124z m-2620
-506 l0 -50 -50 0 -50 0 0 50 0 50 50 0 50 0 0 -50z m140 0 l0 -50 -50 0 -50
0 0 50 0 50 50 0 50 0 0 -50z m-140 -140 l0 -50 -50 0 -50 0 0 50 0 50 50 0
50 0 0 -50z m140 0 l0 -50 -50 0 -50 0 0 50 0 50 50 0 50 0 0 -50z m2310 -180
l0 -50 -50 0 -50 0 0 50 0 50 50 0 50 0 0 -50z m140 0 l0 -50 -50 0 -50 0 0
50 0 50 50 0 50 0 0 -50z m780 0 l0 -50 -50 0 -50 0 0 50 0 50 50 0 50 0 0
-50z m140 0 l0 -50 -50 0 -50 0 0 50 0 50 50 0 50 0 0 -50z m-1060 -140 l0
-50 -50 0 -50 0 0 50 0 50 50 0 50 0 0 -50z m140 0 l0 -50 -50 0 -50 0 0 50 0
50 50 0 50 0 0 -50z m780 0 l0 -50 -50 0 -50 0 0 50 0 50 50 0 50 0 0 -50z
m140 0 l0 -50 -50 0 -50 0 0 50 0 50 50 0 50 0 0 -50z m1062 36 c262 -51 473
-235 518 -453 17 -82 8 -245 -17 -315 -39 -106 -131 -211 -245 -280 -129 -79
-255 -109 -463 -109 -276 0 -456 67 -600 223 -93 100 -135 210 -135 355 0 153
45 266 150 377 100 105 223 172 369 201 90 18 331 19 423 1z m-4042 -296 l0
-50 -50 0 -50 0 0 50 0 50 50 0 50 0 0 -50z m140 0 l0 -50 -50 0 -50 0 0 50 0
50 50 0 50 0 0 -50z m-140 -140 l0 -50 -50 0 -50 0 0 50 0 50 50 0 50 0 0 -50z
m140 0 l0 -50 -50 0 -50 0 0 50 0 50 50 0 50 0 0 -50z m4830 -40 l0 -50 -50 0
-50 0 0 50 0 50 50 0 50 0 0 -50z m140 0 l0 -50 -50 0 -50 0 0 50 0 50 50 0
50 0 0 -50z m-140 -140 l0 -50 -50 0 -50 0 0 50 0 50 50 0 50 0 0 -50z m140 0
l0 -50 -50 0 -50 0 0 50 0 50 50 0 50 0 0 -50z m-2270 -460 l0 -50 -50 0 -50
0 0 50 0 50 50 0 50 0 0 -50z m140 0 l0 -50 -50 0 -50 0 0 50 0 50 50 0 50 0
0 -50z m-2050 -290 l0 -240 -110 0 -110 0 0 240 0 240 110 0 110 0 0 -240z
m1910 150 l0 -50 -50 0 -50 0 0 50 0 50 50 0 50 0 0 -50z m140 0 l0 -50 -50 0
-50 0 0 50 0 50 50 0 50 0 0 -50z m970 -365 l0 -235 -110 0 -110 0 0 235 0
235 110 0 110 0 0 -235z"/>
<path d="M1820 510 c0 -13 7 -20 20 -20 13 0 20 7 20 20 0 13 -7 20 -20 20
-13 0 -20 -7 -20 -20z"/>
<path d="M4840 290 c0 -13 7 -20 20 -20 13 0 20 7 20 20 0 13 -7 20 -20 20
-13 0 -20 -7 -20 -20z"/>
</g>
</svg>
